<?xml version="1.0" standalone="no"?>
<svg xmlns:xlink="http://www.w3.org/1999/xlink" id="wave" style="transform:rotate(0deg); transition: 0.3s" viewBox="0 0 1440 380" version="1.1" xmlns="http://www.w3.org/2000/svg"><defs><linearGradient id="sw-gradient-0" x1="0" x2="0" y1="1" y2="0"><stop stop-color="rgb(11, 79, 134)" offset="0%"/><stop stop-color="rgba(69, 105, 132, 1)" offset="100%"/></linearGradient></defs><path style="transform:translate(0, 0px); opacity:1" fill="url(#sw-gradient-0)" d="M0,266L40,253.3C80,241,160,215,240,171C320,127,400,63,480,63.3C560,63,640,127,720,171C800,215,880,241,960,259.7C1040,279,1120,291,1200,304C1280,317,1360,329,1440,278.7C1520,228,1600,114,1680,63.3C1760,13,1840,25,1920,38C2000,51,2080,63,2160,107.7C2240,152,2320,228,2400,247C2480,266,2560,228,2640,196.3C2720,165,2800,139,2880,158.3C2960,177,3040,241,3120,259.7C3200,279,3280,253,3360,240.7C3440,228,3520,228,3600,221.7C3680,215,3760,203,3840,202.7C3920,203,4000,215,4080,202.7C4160,190,4240,152,4320,126.7C4400,101,4480,89,4560,114C4640,139,4720,203,4800,240.7C4880,279,4960,291,5040,304C5120,317,5200,329,5280,323C5360,317,5440,291,5520,253.3C5600,215,5680,165,5720,139.3L5760,114L5760,380L5720,380C5680,380,5600,380,5520,380C5440,380,5360,380,5280,380C5200,380,5120,380,5040,380C4960,380,4880,380,4800,380C4720,380,4640,380,4560,380C4480,380,4400,380,4320,380C4240,380,4160,380,4080,380C4000,380,3920,380,3840,380C3760,380,3680,380,3600,380C3520,380,3440,380,3360,380C3280,380,3200,380,3120,380C3040,380,2960,380,2880,380C2800,380,2720,380,2640,380C2560,380,2480,380,2400,380C2320,380,2240,380,2160,380C2080,380,2000,380,1920,380C1840,380,1760,380,1680,380C1600,380,1520,380,1440,380C1360,380,1280,380,1200,380C1120,380,1040,380,960,380C880,380,800,380,720,380C640,380,560,380,480,380C400,380,320,380,240,380C160,380,80,380,40,380L0,380Z"/><defs><linearGradient id="sw-gradient-1" x1="0" x2="0" y1="1" y2="0"><stop stop-color="rgb(227, 135, 44)" offset="0%"/><stop stop-color="rgba(227, 135, 44,1)" offset="100%"/></linearGradient></defs><path style="transform:translate(0, 50px); opacity:0.9" fill="url(#sw-gradient-1)" d="M0,190L40,164.7C80,139,160,89,240,114C320,139,400,241,480,291.3C560,342,640,342,720,297.7C800,253,880,165,960,107.7C1040,51,1120,25,1200,31.7C1280,38,1360,76,1440,88.7C1520,101,1600,89,1680,107.7C1760,127,1840,177,1920,183.7C2000,190,2080,152,2160,120.3C2240,89,2320,63,2400,101.3C2480,139,2560,241,2640,253.3C2720,266,2800,190,2880,171C2960,152,3040,190,3120,177.3C3200,165,3280,101,3360,88.7C3440,76,3520,114,3600,164.7C3680,215,3760,279,3840,297.7C3920,317,4000,291,4080,240.7C4160,190,4240,114,4320,95C4400,76,4480,114,4560,164.7C4640,215,4720,279,4800,259.7C4880,241,4960,139,5040,139.3C5120,139,5200,241,5280,247C5360,253,5440,165,5520,126.7C5600,89,5680,101,5720,107.7L5760,114L5760,380L5720,380C5680,380,5600,380,5520,380C5440,380,5360,380,5280,380C5200,380,5120,380,5040,380C4960,380,4880,380,4800,380C4720,380,4640,380,4560,380C4480,380,4400,380,4320,380C4240,380,4160,380,4080,380C4000,380,3920,380,3840,380C3760,380,3680,380,3600,380C3520,380,3440,380,3360,380C3280,380,3200,380,3120,380C3040,380,2960,380,2880,380C2800,380,2720,380,2640,380C2560,380,2480,380,2400,380C2320,380,2240,380,2160,380C2080,380,2000,380,1920,380C1840,380,1760,380,1680,380C1600,380,1520,380,1440,380C1360,380,1280,380,1200,380C1120,380,1040,380,960,380C880,380,800,380,720,380C640,380,560,380,480,380C400,380,320,380,240,380C160,380,80,380,40,380L0,380Z"/></svg>